<svg xmlns="http://www.w3.org/2000/svg" viewBox="0 0 800 600"><defs><linearGradient id="g" x1="0" y1="0" x2="1" y2="1"><stop offset="0" stop-color="#171512"/><stop offset="1" stop-color="#0c0b09"/></linearGradient></defs><rect width="800" height="600" fill="url(#g)"/><g font-family="-apple-system,Helvetica,Arial,sans-serif" letter-spacing="2"><text x="215" y="140" font-size="18" fill="#9a8f80" text-anchor="middle">AIR, 10 KW</text><text x="540" y="140" font-size="18" fill="#f59e0b" text-anchor="middle">LIQUID, 130 KW</text></g><rect x="140" y="190" width="150" height="270" rx="6" fill="none" stroke="#6b6358" stroke-width="5"/><g fill="#60a5fa" opacity=".9"><rect x="158" y="370" width="114" height="20" rx="3"/><rect x="158" y="400" width="114" height="20" rx="3"/><rect x="158" y="430" width="114" height="18" rx="3"/></g><path d="M332 325 L362 325 M350 311 L366 325 L350 339" stroke="#6b6358" stroke-width="5" fill="none" stroke-linecap="round" stroke-linejoin="round"/><rect x="400" y="160" width="280" height="16" rx="3" fill="#f59e0b"/><rect x="486" y="176" width="10" height="14" fill="#f59e0b"/><rect x="410" y="190" width="170" height="270" rx="6" fill="none" stroke="#6b6358" stroke-width="5"/><g fill="#60a5fa"><rect x="426" y="206" width="138" height="20" rx="3"/><rect x="426" y="236" width="138" height="20" rx="3"/><rect x="426" y="266" width="138" height="20" rx="3"/><rect x="426" y="296" width="138" height="20" rx="3"/><rect x="426" y="326" width="138" height="20" rx="3"/><rect x="426" y="356" width="138" height="20" rx="3"/><rect x="426" y="386" width="138" height="20" rx="3"/><rect x="426" y="416" width="138" height="20" rx="3"/></g><path d="M612 212 V432" stroke="#f59e0b" stroke-width="6"/><path d="M636 212 V432" stroke="#b45309" stroke-width="6"/><g stroke="#f59e0b" stroke-width="4"><path d="M564 216 H612"/><path d="M564 246 H612"/><path d="M564 276 H612"/><path d="M564 306 H612"/><path d="M564 336 H612"/><path d="M564 366 H612"/><path d="M564 396 H612"/><path d="M564 426 H612"/></g><rect x="596" y="432" width="84" height="48" rx="4" fill="#b45309"/><text x="638" y="463" font-family="-apple-system,Helvetica,Arial,sans-serif" font-size="18" fill="#171512" letter-spacing="2" text-anchor="middle" font-weight="700">CDU</text><text x="400" y="530" font-family="-apple-system,Helvetica,Arial,sans-serif" font-size="18" fill="#9a8f80" letter-spacing="3" text-anchor="middle">VERTIV: MORE INSIDE EVERY MEGAWATT</text></svg>
