<svg xmlns="http://www.w3.org/2000/svg" viewBox="0 0 800 600"><defs><linearGradient id="g" x1="0" y1="0" x2="1" y2="1"><stop offset="0" stop-color="#171512"/><stop offset="1" stop-color="#0c0b09"/></linearGradient></defs><rect width="800" height="600" fill="url(#g)"/><g font-family="-apple-system,Helvetica,Arial,sans-serif" letter-spacing="2"><text x="120" y="150" font-size="18" fill="#9a8f80">UNDER CONTRACT</text><text x="680" y="150" font-size="20" fill="#f59e0b" text-anchor="end" font-weight="bold">116 GW</text><text x="120" y="290" font-size="18" fill="#9a8f80">BUILT IN A YEAR</text><text x="680" y="290" font-size="20" fill="#b45309" text-anchor="end" font-weight="bold">20 GW</text></g><g fill="#f59e0b"><rect x="120" y="168" width="88" height="70" rx="4"/><rect x="214" y="168" width="88" height="70" rx="4"/><rect x="308" y="168" width="88" height="70" rx="4"/><rect x="402" y="168" width="88" height="70" rx="4"/><rect x="496" y="168" width="88" height="70" rx="4"/><rect x="590" y="168" width="90" height="70" rx="4" opacity=".55"/></g><rect x="120" y="308" width="88" height="70" rx="4" fill="#b45309"/><path d="M214 343 H680" stroke="#b45309" stroke-width="4" stroke-dasharray="10 10" opacity=".5"/><path d="M120 420 H680" stroke="#3a342c" stroke-width="4"/><g stroke="#3a342c" stroke-width="4"><path d="M120 410 V430"/><path d="M211 410 V430"/><path d="M305 410 V430"/><path d="M399 410 V430"/><path d="M493 410 V430"/><path d="M587 410 V430"/><path d="M680 410 V430"/></g><g font-family="-apple-system,Helvetica,Arial,sans-serif" font-size="18" fill="#6b6358" letter-spacing="1" text-anchor="middle"><text x="120" y="458">0</text><text x="211" y="458">1</text><text x="305" y="458">2</text><text x="399" y="458">3</text><text x="493" y="458">4</text><text x="587" y="458">5</text><text x="680" y="458">6 YRS</text></g><text x="400" y="520" font-family="-apple-system,Helvetica,Arial,sans-serif" font-size="18" fill="#9a8f80" letter-spacing="3" text-anchor="middle">GE VERNOVA: ALMOST SIX YEARS SIGNED</text></svg>
