<svg xmlns="http://www.w3.org/2000/svg" viewBox="0 0 800 600"><defs><linearGradient id="g" x1="0" y1="0" x2="1" y2="1"><stop offset="0" stop-color="#171512"/><stop offset="1" stop-color="#0c0b09"/></linearGradient></defs><rect width="800" height="600" fill="url(#g)"/><g font-family="-apple-system,Helvetica,Arial,sans-serif" letter-spacing="2"><text x="120" y="130" font-size="18" fill="#9a8f80">FY2025</text><text x="680" y="130" font-size="20" fill="#f59e0b" text-anchor="end" font-weight="bold">~3 YEARS</text><text x="120" y="310" font-size="18" fill="#9a8f80">FY2030 PLAN</text><text x="680" y="310" font-size="20" fill="#f59e0b" text-anchor="end" font-weight="bold">~3 YEARS</text></g><rect x="120" y="148" width="110" height="44" rx="4" fill="#b45309"/><g fill="#f59e0b"><rect x="120" y="202" width="107" height="62" rx="4"/><rect x="232" y="202" width="107" height="62" rx="4"/><rect x="344" y="202" width="106" height="62" rx="4"/></g><rect x="120" y="328" width="198" height="44" rx="4" fill="#b45309"/><g fill="#f59e0b"><rect x="120" y="382" width="196" height="62" rx="4"/><rect x="322" y="382" width="196" height="62" rx="4"/><rect x="524" y="382" width="146" height="62" rx="4"/></g><g font-family="-apple-system,Helvetica,Arial,sans-serif" font-size="18" fill="#9a8f80" letter-spacing="2"><text x="246" y="177">$19.8B SHIPPED</text><text x="466" y="240">$57.9B WAITING</text><text x="334" y="357">$36B SHIPPED</text></g><text x="120" y="478" font-family="-apple-system,Helvetica,Arial,sans-serif" font-size="18" fill="#9a8f80" letter-spacing="2">$100B WAITING</text><text x="400" y="540" font-family="-apple-system,Helvetica,Arial,sans-serif" font-size="18" fill="#9a8f80" letter-spacing="3" text-anchor="middle">HITACHI ENERGY: A QUEUE KEPT BY PLAN</text></svg>
