<svg xmlns="http://www.w3.org/2000/svg" viewBox="0 0 800 600"><defs><linearGradient id="g" x1="0" y1="0" x2="1" y2="1"><stop offset="0" stop-color="#171512"/><stop offset="1" stop-color="#0c0b09"/></linearGradient></defs><rect width="800" height="600" fill="url(#g)"/><g font-family="-apple-system,Helvetica,Arial,sans-serif" letter-spacing="2" font-size="18"><text x="130" y="132" fill="#f59e0b">POWER: FIXED</text><text x="505" y="310" fill="#6b6358" text-anchor="middle">SPARE FLOOR</text></g><path d="M200 140 V200" stroke="#f59e0b" stroke-width="6"/><rect x="130" y="160" width="540" height="300" rx="6" fill="none" stroke="#6b6358" stroke-width="5"/><g stroke="#3a342c" stroke-width="3" stroke-dasharray="10 10"><path d="M360 220 H650"/><path d="M360 270 H650"/><path d="M360 340 H650"/><path d="M360 390 H650"/><path d="M360 440 H650"/></g><path d="M160 200 H330" stroke="#f59e0b" stroke-width="6"/><g fill="#60a5fa"><rect x="162" y="214" width="34" height="220" rx="3"/><rect x="204" y="214" width="34" height="220" rx="3"/><rect x="246" y="214" width="34" height="220" rx="3"/><rect x="288" y="214" width="34" height="220" rx="3"/></g><g fill="#1d4ed8"><rect x="168" y="232" width="22" height="6"/><rect x="168" y="262" width="22" height="6"/><rect x="168" y="292" width="22" height="6"/><rect x="168" y="322" width="22" height="6"/><rect x="168" y="352" width="22" height="6"/><rect x="168" y="382" width="22" height="6"/><rect x="210" y="232" width="22" height="6"/><rect x="210" y="262" width="22" height="6"/><rect x="210" y="292" width="22" height="6"/><rect x="210" y="322" width="22" height="6"/><rect x="210" y="352" width="22" height="6"/><rect x="210" y="382" width="22" height="6"/><rect x="252" y="232" width="22" height="6"/><rect x="252" y="262" width="22" height="6"/><rect x="252" y="292" width="22" height="6"/><rect x="252" y="322" width="22" height="6"/><rect x="252" y="352" width="22" height="6"/><rect x="252" y="382" width="22" height="6"/><rect x="294" y="232" width="22" height="6"/><rect x="294" y="262" width="22" height="6"/><rect x="294" y="292" width="22" height="6"/><rect x="294" y="322" width="22" height="6"/><rect x="294" y="352" width="22" height="6"/><rect x="294" y="382" width="22" height="6"/></g><text x="400" y="520" font-family="-apple-system,Helvetica,Arial,sans-serif" font-size="18" fill="#9a8f80" letter-spacing="3" text-anchor="middle">JANE STREET: ROOM TO SPARE, NO POWER</text></svg>
