<svg xmlns="http://www.w3.org/2000/svg" viewBox="0 0 800 600"><defs><linearGradient id="g" x1="0" y1="0" x2="1" y2="1"><stop offset="0" stop-color="#171512"/><stop offset="1" stop-color="#0c0b09"/></linearGradient></defs><rect width="800" height="600" fill="url(#g)"/><g transform="translate(0,-12)"><text x="110" y="146" font-family="-apple-system,Helvetica,Arial,sans-serif" font-size="18" fill="#9a8f80" letter-spacing="2" text-anchor="start">ROUTE ONE · THE GRID QUEUE</text><g fill="#60a5fa"><rect x="110" y="166" width="40" height="40" rx="5" opacity="0.45"/><rect x="160" y="166" width="40" height="40" rx="5" opacity="0.50"/><rect x="210" y="166" width="40" height="40" rx="5" opacity="0.55"/><rect x="260" y="166" width="40" height="40" rx="5" opacity="0.60"/><rect x="310" y="166" width="40" height="40" rx="5" opacity="0.65"/><rect x="360" y="166" width="40" height="40" rx="5" opacity="0.70"/><rect x="410" y="166" width="40" height="40" rx="5" opacity="0.75"/><rect x="460" y="166" width="40" height="40" rx="5" opacity="0.80"/><rect x="510" y="166" width="40" height="40" rx="5" opacity="0.85"/><rect x="560" y="166" width="40" height="40" rx="5" opacity="0.90"/></g><g stroke="#60a5fa" stroke-width="4" fill="none" stroke-linecap="round"><path d="M614 186 H688"/><path d="M672 176 L688 186 L672 196"/></g><text x="110" y="280" font-family="-apple-system,Helvetica,Arial,sans-serif" font-size="18" fill="#9a8f80" letter-spacing="2" text-anchor="start">ROUTE TWO · BUILD YOUR OWN</text><g fill="#f59e0b"><rect x="110" y="300" width="40" height="40" rx="5" opacity="0.45"/><rect x="160" y="300" width="40" height="40" rx="5" opacity="0.50"/><rect x="210" y="300" width="40" height="40" rx="5" opacity="0.55"/><rect x="260" y="300" width="40" height="40" rx="5" opacity="0.60"/><rect x="310" y="300" width="40" height="40" rx="5" opacity="0.65"/><rect x="360" y="300" width="40" height="40" rx="5" opacity="0.70"/><rect x="410" y="300" width="40" height="40" rx="5" opacity="0.75"/><rect x="460" y="300" width="40" height="40" rx="5" opacity="0.80"/><rect x="510" y="300" width="40" height="40" rx="5" opacity="0.85"/><rect x="560" y="300" width="40" height="40" rx="5" opacity="0.90"/></g><g stroke="#f59e0b" stroke-width="5" fill="none" stroke-linecap="round"><circle cx="652" cy="320" r="28"/><path d="M638 306 L666 334 M666 306 L638 334"/></g><text x="110" y="386" font-family="-apple-system,Helvetica,Arial,sans-serif" font-size="16" fill="#f59e0b" letter-spacing="2" text-anchor="start">116 GW UNDER CONTRACT · SOLD OUT TO 2030</text></g><text x="400" y="448" font-family="-apple-system,Helvetica,Arial,sans-serif" font-size="18" fill="#9a8f80" letter-spacing="4" text-anchor="middle">BOTH ROUTES ARE QUEUES</text></svg>