<svg xmlns="http://www.w3.org/2000/svg" viewBox="0 0 800 600"><defs><linearGradient id="g" x1="0" y1="0" x2="1" y2="1"><stop offset="0" stop-color="#171512"/><stop offset="1" stop-color="#0c0b09"/></linearGradient></defs><rect width="800" height="600" fill="url(#g)"/><g font-family="-apple-system,Helvetica,Arial,sans-serif" font-size="13" fill="#9a8f80" letter-spacing="2"><text x="480" y="160">THE GRID</text><text x="480" y="290">ON-SITE FUEL CELLS</text></g><path d="M480 185 H720" stroke="#60a5fa" stroke-width="10" stroke-linecap="round" opacity=".85"/><g font-family="-apple-system,Helvetica,Arial,sans-serif" font-size="13" fill="#60a5fa" letter-spacing="2"><text x="480" y="220">4 TO 7 YEARS</text></g><path d="M480 315 H720" stroke="#3a342c" stroke-width="10" stroke-linecap="round"/><path d="M480 315 H505" stroke="#f59e0b" stroke-width="10" stroke-linecap="round"/><g font-family="-apple-system,Helvetica,Arial,sans-serif" font-size="13" fill="#f59e0b" letter-spacing="2"><text x="480" y="350">MONTHS</text></g><g fill="#f59e0b" opacity=".9"><rect x="600" y="336" width="34" height="52" rx="4"/><rect x="642" y="336" width="34" height="52" rx="4"/><rect x="684" y="336" width="34" height="52" rx="4"/></g><g fill="#b45309"><rect x="605" y="346" width="24" height="4"/><rect x="605" y="356" width="24" height="4"/><rect x="605" y="366" width="24" height="4"/><rect x="647" y="346" width="24" height="4"/><rect x="647" y="356" width="24" height="4"/><rect x="647" y="366" width="24" height="4"/><rect x="689" y="346" width="24" height="4"/><rect x="689" y="356" width="24" height="4"/><rect x="689" y="366" width="24" height="4"/></g><g font-family="-apple-system,Helvetica,Arial,sans-serif" font-size="14" fill="#9a8f80" letter-spacing="3"><text x="480" y="440">THE PRODUCT IS TIME</text></g></svg>
