<svg xmlns="http://www.w3.org/2000/svg" viewBox="0 0 800 600"><defs><linearGradient id="g" x1="0" y1="0" x2="1" y2="1"><stop offset="0" stop-color="#171512"/><stop offset="1" stop-color="#0c0b09"/></linearGradient></defs><rect width="800" height="600" fill="url(#g)"/><g font-family="-apple-system,Helvetica,Arial,sans-serif" font-size="13" fill="#9a8f80" letter-spacing="2"><text x="170" y="170">THE GRID</text><text x="170" y="300">BLOOM FUEL CELLS, ON SITE</text></g><path d="M170 195 H630" stroke="#60a5fa" stroke-width="10" stroke-linecap="round" opacity=".85"/><g font-family="-apple-system,Helvetica,Arial,sans-serif" font-size="13" fill="#60a5fa" letter-spacing="2"><text x="170" y="230">4 TO 7 YEARS</text></g><path d="M170 325 H630" stroke="#3a342c" stroke-width="10" stroke-linecap="round"/><path d="M170 325 H205" stroke="#f59e0b" stroke-width="10" stroke-linecap="round"/><g font-family="-apple-system,Helvetica,Arial,sans-serif" font-size="13" fill="#f59e0b" letter-spacing="2"><text x="170" y="360">MONTHS</text></g><g fill="#f59e0b" opacity=".9"><rect x="506" y="345" width="34" height="52" rx="4"/><rect x="551" y="345" width="34" height="52" rx="4"/><rect x="596" y="345" width="34" height="52" rx="4"/></g><g fill="#b45309"><rect x="511" y="355" width="24" height="4"/><rect x="511" y="365" width="24" height="4"/><rect x="511" y="375" width="24" height="4"/><rect x="556" y="355" width="24" height="4"/><rect x="556" y="365" width="24" height="4"/><rect x="556" y="375" width="24" height="4"/><rect x="601" y="355" width="24" height="4"/><rect x="601" y="365" width="24" height="4"/><rect x="601" y="375" width="24" height="4"/></g><g font-family="-apple-system,Helvetica,Arial,sans-serif" font-size="14" fill="#9a8f80" letter-spacing="3"><text x="400" y="445" text-anchor="middle">BLOOM IS SELLING TIME</text></g></svg>
