<svg xmlns="http://www.w3.org/2000/svg" viewBox="0 0 800 600"><defs><linearGradient id="g" x1="0" y1="0" x2="1" y2="1"><stop offset="0" stop-color="#171512"/><stop offset="1" stop-color="#0c0b09"/></linearGradient></defs><rect width="800" height="600" fill="url(#g)"/><g font-family="-apple-system,Helvetica,Arial,sans-serif" font-size="13" fill="#9a8f80" letter-spacing="2"><text x="210" y="150">ROUTE ONE · THE GRID QUEUE</text><text x="210" y="330">ROUTE TWO · BUILD YOUR OWN</text></g><g fill="#60a5fa" opacity=".85"><rect x="210" y="172" width="26" height="30" rx="3"/><rect x="248" y="172" width="26" height="30" rx="3"/><rect x="286" y="172" width="26" height="30" rx="3"/><rect x="324" y="172" width="26" height="30" rx="3"/><rect x="362" y="172" width="26" height="30" rx="3"/><rect x="400" y="172" width="26" height="30" rx="3"/><rect x="438" y="172" width="26" height="30" rx="3"/><rect x="476" y="172" width="26" height="30" rx="3"/><rect x="514" y="172" width="26" height="30" rx="3"/><rect x="552" y="172" width="26" height="30" rx="3"/></g><path d="M600 187 H700" stroke="#60a5fa" stroke-width="2.5" fill="none" opacity=".7"/><path d="M684 179 L700 187 L684 195" stroke="#60a5fa" stroke-width="2.5" fill="none" opacity=".7"/><g fill="#f59e0b" opacity=".85"><rect x="210" y="352" width="26" height="30" rx="3"/><rect x="248" y="352" width="26" height="30" rx="3"/><rect x="286" y="352" width="26" height="30" rx="3"/><rect x="324" y="352" width="26" height="30" rx="3"/><rect x="362" y="352" width="26" height="30" rx="3"/><rect x="400" y="352" width="26" height="30" rx="3"/><rect x="438" y="352" width="26" height="30" rx="3"/><rect x="476" y="352" width="26" height="30" rx="3"/><rect x="514" y="352" width="26" height="30" rx="3"/><rect x="552" y="352" width="26" height="30" rx="3"/></g><path d="M600 367 H700" stroke="#f59e0b" stroke-width="2.5" fill="none" opacity=".7"/><path d="M684 359 L700 367 L684 375" stroke="#f59e0b" stroke-width="2.5" fill="none" opacity=".7"/><g font-family="-apple-system,Helvetica,Arial,sans-serif" font-size="13" fill="#f59e0b" letter-spacing="2"><text x="210" y="416">116 GW UNDER CONTRACT</text><text x="210" y="440">SOLD OUT TO 2030</text></g><g stroke="#f59e0b" stroke-width="3" fill="none" opacity=".9"><circle cx="648" cy="470" r="30"/><path d="M648 440 V420 M648 500 V520 M618 470 H598 M678 470 H698"/><path d="M634 456 L662 484 M662 456 L634 484"/></g><g font-family="-apple-system,Helvetica,Arial,sans-serif" font-size="12" fill="#9a8f80" letter-spacing="2"><text x="596" y="548">TURBINE</text></g><g font-family="-apple-system,Helvetica,Arial,sans-serif" font-size="14" fill="#9a8f80" letter-spacing="3"><text x="210" y="520">BOTH ROUTES ARE QUEUES</text></g></svg>
