<svg xmlns="http://www.w3.org/2000/svg" viewBox="0 0 800 600"><defs><linearGradient id="g" x1="0" y1="0" x2="1" y2="1"><stop offset="0" stop-color="#171512"/><stop offset="1" stop-color="#0c0b09"/></linearGradient></defs><rect width="800" height="600" fill="url(#g)"/><path d="M400 96 V512" stroke="#3b342c" stroke-width="2" stroke-dasharray="6 8" fill="none"/><g font-family="-apple-system,Helvetica,Arial,sans-serif" font-size="13" fill="#9a8f80" letter-spacing="2"><text x="86" y="128">CAN MAKE MORE</text><text x="440" y="128">CANNOT MAKE MORE</text></g><g font-family="-apple-system,Helvetica,Arial,sans-serif" font-size="12" fill="#6b6257" letter-spacing="2"><text x="86" y="150">SO IT SPENDS</text><text x="440" y="150">SO IT RATIONS</text></g><g stroke="#f59e0b" stroke-width="3" fill="none"><path d="M86 210 H352"/><path d="M86 252 H352"/><path d="M86 294 H352"/></g><g stroke="#f59e0b" stroke-width="3" fill="none" stroke-dasharray="8 8" opacity=".55"><path d="M86 336 H352"/><path d="M86 378 H352"/></g><g fill="#f59e0b" opacity=".9"><path d="M336 200 L356 210 L336 220 Z"/><path d="M336 242 L356 252 L336 262 Z"/><path d="M336 284 L356 294 L336 304 Z"/></g><g font-family="-apple-system,Helvetica,Arial,sans-serif" font-size="12" fill="#f59e0b" letter-spacing="2"><text x="86" y="416">MORE CONNECTIONS BUILT</text><text x="86" y="438">36 TO 12 MONTHS</text></g><g stroke="#60a5fa" stroke-width="3" fill="none"><path d="M448 206 H596"/><path d="M448 240 H596"/><path d="M448 274 H596"/><path d="M448 308 H596"/><path d="M448 342 H596"/></g><path d="M596 206 L648 258 M596 240 L648 258 M596 274 L648 262 M596 308 L648 266 M596 342 L648 266" stroke="#60a5fa" stroke-width="2" fill="none" opacity=".5"/><g stroke="#60a5fa" stroke-width="4" fill="none"><path d="M648 236 V286"/><path d="M660 236 V286"/></g><path d="M660 262 H726" stroke="#60a5fa" stroke-width="3" fill="none"/><path d="M710 254 L726 262 L710 270" stroke="#60a5fa" stroke-width="3" fill="none"/><g font-family="-apple-system,Helvetica,Arial,sans-serif" font-size="12" fill="#60a5fa" letter-spacing="2"><text x="448" y="416">ONE GATE, ONE CONDITION</text><text x="448" y="438">EFFICIENCY 1.25 OR BETTER</text></g><g font-family="-apple-system,Helvetica,Arial,sans-serif" font-size="15" fill="#9a8f80" letter-spacing="3"><text x="86" y="516">NOBODY RATIONS ABUNDANCE</text></g><g font-family="-apple-system,Helvetica,Arial,sans-serif" font-size="12" fill="#6b6257" letter-spacing="2"><text x="86" y="544">OPPOSITE POLICIES · THE SAME DIAGNOSIS</text></g></svg>
