<svg xmlns="http://www.w3.org/2000/svg" viewBox="0 0 800 600"><defs><linearGradient id="g" x1="0" y1="0" x2="1" y2="1"><stop offset="0" stop-color="#171512"/><stop offset="1" stop-color="#0c0b09"/></linearGradient></defs><rect width="800" height="600" fill="url(#g)"/><g stroke="#3b342c" stroke-width="3" fill="none"><path d="M180 430 H330"/><path d="M180 415 V445 M330 415 V445"/></g><g stroke="#3b342c" stroke-width="3" fill="none" stroke-dasharray="9 9"><path d="M330 430 H560"/></g><g stroke="#60a5fa" stroke-width="3" fill="none"><path d="M560 430 H720"/><path d="M720 415 V445"/></g><g font-family="-apple-system,Helvetica,Arial,sans-serif" font-size="12" fill="#9a8f80" letter-spacing="2"><text x="180" y="474">WIRES BUILT</text><text x="352" y="474">STILL BEING BUILT</text><text x="586" y="474">CONNECTED</text></g><g stroke="#f59e0b" stroke-width="3" fill="none"><rect x="372" y="250" width="150" height="96" rx="6"/><path d="M400 250 V232 M448 250 V232 M496 250 V232"/></g><g fill="#f59e0b" opacity=".85"><rect x="386" y="300" width="28" height="32" rx="2"/><rect x="424" y="286" width="28" height="46" rx="2"/><rect x="462" y="272" width="28" height="60" rx="2"/></g><path d="M447 346 V420" stroke="#f59e0b" stroke-width="3" fill="none"/><path d="M439 404 L447 420 L455 404" stroke="#f59e0b" stroke-width="3" fill="none"/><g font-family="-apple-system,Helvetica,Arial,sans-serif" font-size="13" fill="#f59e0b" letter-spacing="2"><text x="372" y="214">OPENS EARLY</text></g><g font-family="-apple-system,Helvetica,Arial,sans-serif" font-size="13" fill="#60a5fa" letter-spacing="2"><text x="180" y="150">24 GW PLANNED 2026</text><text x="180" y="176">12.9 GW OF IT IN TEXAS</text></g><g font-family="-apple-system,Helvetica,Arial,sans-serif" font-size="14" fill="#9a8f80" letter-spacing="3"><text x="180" y="540">A BRIDGE, NOT A CONNECTION</text></g></svg>
