<svg xmlns="http://www.w3.org/2000/svg" viewBox="0 0 800 600"><defs><linearGradient id="g" x1="0" y1="0" x2="1" y2="1"><stop offset="0" stop-color="#171512"/><stop offset="1" stop-color="#0c0b09"/></linearGradient></defs><rect width="800" height="600" fill="url(#g)"/><g transform="translate(0,-12)"><text x="400" y="150" font-family="-apple-system,Helvetica,Arial,sans-serif" font-size="20" fill="#f59e0b" letter-spacing="3" text-anchor="middle">OPENS EARLY</text><g stroke="#f59e0b" stroke-width="5" fill="none" stroke-linecap="round"><rect x="310" y="186" width="180" height="116" rx="10"/><path d="M350 186 V166 M400 186 V166 M450 186 V166"/><path d="M400 302 V358"/><path d="M386 342 L400 360 L414 342"/></g><g fill="#f59e0b"><rect x="332" y="252" width="36" height="34" rx="3"/><rect x="382" y="232" width="36" height="54" rx="3"/><rect x="432" y="210" width="36" height="76" rx="3"/></g><g stroke-width="5" fill="none" stroke-linecap="round"><path d="M110 380 H290" stroke="#6b6257"/><path d="M290 380 H510" stroke="#6b6257" stroke-dasharray="12 12"/><path d="M510 380 H690" stroke="#60a5fa"/><path d="M110 366 V394" stroke="#6b6257"/><path d="M690 366 V394" stroke="#60a5fa"/></g><text x="110" y="418" font-family="-apple-system,Helvetica,Arial,sans-serif" font-size="15" fill="#9a8f80" letter-spacing="2" text-anchor="start">WIRES BUILT</text><text x="400" y="418" font-family="-apple-system,Helvetica,Arial,sans-serif" font-size="15" fill="#9a8f80" letter-spacing="2" text-anchor="middle">STILL BEING BUILT</text><text x="690" y="418" font-family="-apple-system,Helvetica,Arial,sans-serif" font-size="15" fill="#60a5fa" letter-spacing="2" text-anchor="end">CONNECTED</text></g><text x="400" y="448" font-family="-apple-system,Helvetica,Arial,sans-serif" font-size="18" fill="#9a8f80" letter-spacing="4" text-anchor="middle">A BRIDGE, NOT A CONNECTION</text></svg>